<svg xmlns="http://www.w3.org/2000/svg" xmlns:xlink="http://www.w3.org/1999/xlink" viewBox="0 0 214.7 297.9"><path d="M209.7 298c6.6-60.9-17-106.1-27-117.1-14.4-15.9-14.4-35.8-14.4-35.8 30.8-113.3-61.6-111.3-61.6-111.3h1.4s-92.4-2-61.6 111.3c0 0 0 19.9-14.4 35.8-9.9 10.9-33.4 56.7-27 117.2" fill="#333"/><g fill="#eea8ca"><path d="M106.7 33.8h0zm.7 0h0z"/><path d="M182.7 180.9c-14.4-15.9-14.4-35.8-14.4-35.8 29.2-107.5-52.5-111.2-60.9-111.3-8.4.1-90.1 3.8-60.9 111.3 0 0 0 19.9-14.4 35.8-.4.5-.9 1-1.3 1.6 19.5 19.8 46.6 32.1 76.5 32.1 30 0 57.2-12.3 76.6-32.2-.4-.6-.8-1.1-1.2-1.5z"/></g><circle cx="107.3" cy="107.3" r="49.7" fill="#ffe9a3"/><g fill="#333"><use xlink:href="#B"/><use xlink:href="#B" x="43.7"/></g><path d="M107.4 135.7c-5.4 0-9.9-4.4-9.9-9.8v-.1c0-1.1.9-2 2-2s2 .9 2 2c.4 3.3 3.3 5.7 6.6 5.3a5.96 5.96 0 0 0 5.3-5.3c0-1.1.9-2 2-2s2 .9 2 2c-.1 5.5-4.6 9.9-10 9.9h0z" fill="#ef609d"/><path d="M51.3 254.7s71.3-15.1 48.9-41.5l-.1-.1c-22.5-26.4-48.9 41.6-48.9 41.6m112.2 0s-71.3-15.1-48.9-41.5l.1-.1c22.5-26.4 48.9 41.6 48.9 41.6" fill="#fff"/><circle cx="107.3" cy="212.5" r="9.5" fill="#ef609d"/><g fill="#ffd42f"><path d="M54.2 99.4s31.7-1 53.8-24.3h0V50.8s-53.8-6.1-53.8 48.6z"/><path d="M160.5 99.4s-31.7-1-53.8-24.3h0V50.8s53.8-6.1 53.8 48.6z"/></g><defs ><path id="B" d="M85.5 112.2c-5.5 0-9.9-4.5-9.9-9.9 0-1.1.9-2 2-2s2 .9 2 2c.4 3.3 3.3 5.7 6.6 5.3a5.96 5.96 0 0 0 5.3-5.3c0-1.1.9-2 2-2s2 .9 2 2c0 5.5-4.5 9.9-10 9.9h0z"/></defs></svg>