<svg xmlns="http://www.w3.org/2000/svg" xmlns:xlink="http://www.w3.org/1999/xlink" viewBox="0 0 184.5 255.6"><path d="M180.1 256c5.8-52.4-14.6-91.3-23.1-100.8-12.4-13.7-12.3-30.7-12.3-30.7C171.1 27.3 91.8 29 91.8 29H93s-79.3-1.7-52.8 95.5c0 0 0 17.1-12.3 30.7-8.5 9.3-28.6 47.8-23.2 99.7" fill="#ffe9a3"/><defs><path id="A" d="M91.8 337.7c15.8 0 61.7-5.1 61.7-5.1 52.9-88.7 15.9-163.7 3.5-177.4s-12.3-30.7-12.3-30.7C171.1 27.3 91.8 29 91.8 29H93s-79.3-1.7-52.8 95.5c0 0 0 17.1-12.3 30.7s-49.3 88.7 3.5 177.4c0 0 45.8 5.1 61.6 5.1"/></defs><clipPath id="B"><use xlink:href="#A"/></clipPath><g clip-path="url(#B)"><path d="M166.2 192.2c0-1.4-1.1-2.5-2.5-2.5-.7 0-1.3.3-1.8.7-1 1-1 2.5 0 3.5.5.5 1.1.7 1.8.7 1.4.1 2.5-1 2.5-2.4zm-17.7 0c0-1.4-1.1-2.5-2.5-2.5-.7 0-1.3.3-1.8.7-1 1-1 2.5 0 3.5.5.5 1.1.7 1.8.7 1.4.1 2.5-1 2.5-2.4h0zm-17.7 0c0-1.4-1.1-2.5-2.5-2.5-.7 0-1.3.3-1.8.7-1 1-1 2.5 0 3.5.5.5 1.1.7 1.8.7 1.4.1 2.5-1 2.5-2.4zm-35.4 0c0-1.4-1.1-2.5-2.5-2.5-.7 0-1.3.3-1.8.7-1 1-1 2.5 0 3.5.5.5 1.1.7 1.8.7 1.4.1 2.5-1 2.5-2.4h0zm-35.4 0c0-1.4-1.1-2.5-2.5-2.5-.7 0-1.3.3-1.8.7-1 1-1 2.5 0 3.5.5.5 1.1.7 1.8.7 1.4.1 2.5-1 2.5-2.4h0zm-17.7 0c0-1.4-1.1-2.5-2.5-2.5-.7 0-1.3.3-1.8.7-1 1-1 2.5 0 3.5.5.5 1.1.7 1.8.7 1.4.1 2.5-1 2.5-2.4h0zm-17.7 0c0-1.4-1.1-2.5-2.5-2.5-.7 0-1.3.3-1.8.7-1 1-1 2.5 0 3.5.5.5 1.1.7 1.8.7 1.4.1 2.5-1 2.5-2.4zm132.7-14.3c0-1.4-1.1-2.5-2.5-2.5s-2.5 1.1-2.5 2.5 1.1 2.5 2.5 2.5c.7 0 1.3-.3 1.8-.7.4-.5.7-1.1.7-1.8h0zm-17.7 0c0-1.4-1.1-2.5-2.5-2.5-.7 0-1.3.3-1.8.7-1 1-1 2.6 0 3.5.5.5 1.1.7 1.8.7 1.4.1 2.5-1 2.5-2.4h0zm-88.5 0c0-1.4-1.1-2.5-2.5-2.5-.7 0-1.3.3-1.8.7-1 1-1 2.6 0 3.5.5.5 1.1.7 1.8.7 1.4.1 2.5-1 2.5-2.4zm-17.7 0c0-1.4-1.1-2.5-2.5-2.5-.7 0-1.3.3-1.8.7-1 1-1 2.6 0 3.5.5.5 1.1.7 1.8.7 1.4.1 2.5-1 2.5-2.4h0zm132.7 42.9c0-1.4-1.1-2.5-2.5-2.5-.7 0-1.3.3-1.8.7-1 1-1 2.5 0 3.5.5.5 1.1.7 1.8.7 1.4.1 2.5-1.1 2.5-2.4zm-17.7 0c0-1.4-1.1-2.5-2.5-2.5-.7 0-1.3.3-1.8.7-1 1-1 2.5 0 3.5.5.5 1.1.7 1.8.7 1.4.1 2.5-1.1 2.5-2.4h0zm-17.7 0c0-1.4-1.1-2.5-2.5-2.5-.7 0-1.3.3-1.8.7-1 1-1 2.5 0 3.5.5.5 1.1.7 1.8.7 1.4.1 2.5-1 2.5-2.4zm-17.7 0c0-1.4-1.1-2.5-2.5-2.5-.7 0-1.3.3-1.8.7-1 1-1 2.5 0 3.5.5.5 1.1.7 1.8.7 1.4.1 2.5-1.1 2.5-2.4h0zm-17.7 0c0-1.4-1.1-2.5-2.5-2.5-.7 0-1.3.3-1.8.7-1 1-1 2.5 0 3.5.5.5 1.1.7 1.8.7 1.4.1 2.5-1.1 2.5-2.4h0zm-17.7 0c0-1.4-1.1-2.5-2.5-2.5-.7 0-1.3.3-1.8.7-1 1-1 2.5 0 3.5.5.5 1.1.7 1.8.7 1.4.1 2.5-1.1 2.5-2.4h0zm-17.7 0c0-1.4-1.1-2.5-2.5-2.5-.7 0-1.3.3-1.8.7-1 1-1 2.5 0 3.5.5.5 1.1.7 1.8.7 1.4.1 2.5-1.1 2.5-2.4h0zm-17.7 0c0-1.4-1.1-2.5-2.5-2.5-.7 0-1.3.3-1.8.7-1 1-1 2.5 0 3.5.5.5 1.1.7 1.8.7 1.4.1 2.5-1.1 2.5-2.4h0zm-17.7 0c0-1.4-1.1-2.5-2.5-2.5-.7 0-1.3.3-1.8.7-1 1-1 2.5 0 3.5.5.5 1.1.7 1.8.7 1.4.1 2.5-1 2.5-2.4zm150.4-14.3c0-1.4-1.1-2.5-2.5-2.5-.7 0-1.3.3-1.8.7-1 1-1 2.5 0 3.5.5.5 1.1.7 1.8.7 1.4.1 2.5-1.1 2.5-2.4h0zm-17.7 0c0-1.4-1.1-2.5-2.5-2.5-.7 0-1.3.3-1.8.7-1 1-1 2.5 0 3.5.5.5 1.1.7 1.8.7 1.4.1 2.5-1 2.5-2.4h0zm-17.7 0c0-1.4-1.1-2.5-2.5-2.5-.7 0-1.3.3-1.8.7-1 1-1 2.5 0 3.5.5.5 1.1.7 1.8.7 1.4.1 2.5-1.1 2.5-2.4h0zm-35.4 0c0-1.4-1.1-2.5-2.5-2.5s-2.5 1.1-2.5 2.5 1.1 2.5 2.5 2.5c.7 0 1.3-.3 1.8-.7.5-.5.7-1.2.7-1.8zm-17.7 0c0-1.4-1.1-2.5-2.5-2.5s-2.5 1.1-2.5 2.5 1.1 2.5 2.5 2.5 2.5-1.1 2.5-2.5zm-35.4 0c0-1.4-1.1-2.5-2.5-2.5s-2.5 1.1-2.5 2.5h0c0 1.4 1.1 2.5 2.5 2.5.7 0 1.3-.3 1.8-.7.5-.5.7-1.2.7-1.8zm-17.7 0c0-1.4-1.1-2.5-2.5-2.5s-2.5 1.1-2.5 2.5h0c0 1.4 1.1 2.5 2.5 2.5s2.5-1.1 2.5-2.5zm-17.7 0c0-1.4-1.1-2.5-2.5-2.5s-2.5 1.1-2.5 2.5 1.1 2.5 2.5 2.5 2.5-1.1 2.5-2.5h0zM166 249.4c0-1.4-1.1-2.5-2.5-2.5s-2.5 1.1-2.5 2.5 1.1 2.5 2.5 2.5c.7 0 1.3-.3 1.8-.7.5-.6.7-1.2.7-1.8h0zm-17.7 0c0-1.4-1.1-2.5-2.5-2.5-.7 0-1.3.3-1.8.7-1 1-1 2.5 0 3.5.5.5 1.1.7 1.8.7 1.4 0 2.5-1.1 2.5-2.4h0zm-17.7 0c0-1.4-1.1-2.5-2.5-2.5-.7 0-1.3.3-1.8.7-1 1-1 2.5 0 3.5.5.5 1.1.7 1.8.7 1.4 0 2.5-1.1 2.5-2.4zm-17.7 0c0-1.4-1.1-2.5-2.5-2.5-.7 0-1.3.3-1.8.7-1 1-1 2.5 0 3.5.5.5 1.1.7 1.8.7 1.4 0 2.5-1.1 2.5-2.4h0zm-17.7 0c0-1.4-1.1-2.5-2.5-2.5-.7 0-1.3.3-1.8.7-1 1-1 2.5 0 3.5.5.5 1.1.7 1.8.7 1.4 0 2.5-1.1 2.5-2.4h0zm-17.7 0c0-1.4-1.1-2.5-2.5-2.5-.7 0-1.3.3-1.8.7-1 1-1 2.5 0 3.5.5.5 1.1.7 1.8.7 1.4 0 2.5-1.1 2.5-2.4h0zm-17.7 0c0-1.4-1.1-2.5-2.5-2.5-.7 0-1.3.3-1.8.7-1 1-1 2.5 0 3.5.5.5 1.1.7 1.8.7 1.4 0 2.5-1.1 2.5-2.4h0zm-17.7 0c0-1.4-1.1-2.5-2.5-2.5-.7 0-1.3.3-1.8.7-1 1-1 2.5 0 3.5.5.5 1.1.7 1.8.7 1.4 0 2.5-1.1 2.5-2.4h0zm-17.7 0c0-1.4-1.1-2.5-2.5-2.5-.7 0-1.3.3-1.8.7-1 1-1 2.5 0 3.5.5.5 1.1.7 1.8.7 1.4 0 2.5-1.1 2.5-2.4zm150.4-14.3c0-1.4-1.1-2.5-2.5-2.5-.7 0-1.3.3-1.8.7-1 1-1 2.5 0 3.5.5.5 1.1.7 1.8.7 1.4 0 2.5-1.1 2.5-2.4h0zm-17.7 0c0-1.4-1.1-2.5-2.5-2.5-.7 0-1.3.3-1.8.7-1 1-1 2.5 0 3.5.5.5 1.1.7 1.8.7 1.4 0 2.5-1.1 2.5-2.4h0zm-17.7 0c0-1.4-1.1-2.5-2.5-2.5-.7 0-1.3.3-1.8.7-1 1-1 2.5 0 3.5.5.5 1.1.7 1.8.7 1.4 0 2.5-1.1 2.5-2.4h0zm-17.7 0c0-1.4-1.1-2.5-2.5-2.5-.7 0-1.3.3-1.8.7-1 1-1 2.5 0 3.5.5.5 1.1.7 1.8.7 1.4 0 2.5-1.1 2.5-2.4h0zm-17.7 0c0-1.4-1.1-2.5-2.5-2.5-.7 0-1.3.3-1.8.7-1 1-1 2.5 0 3.5.5.5 1.1.7 1.8.7 1.4 0 2.5-1.1 2.5-2.4zm-17.7 0c0-1.4-1.1-2.5-2.5-2.5-.7 0-1.3.3-1.8.7-1 1-1 2.5 0 3.5.5.5 1.1.7 1.8.7 1.4 0 2.5-1.1 2.5-2.4h0zm-17.7 0c0-1.4-1.1-2.5-2.5-2.5-.7 0-1.3.3-1.8.7-1 1-1 2.5 0 3.5.5.5 1.1.7 1.8.7 1.4 0 2.5-1.1 2.5-2.4h0zm-17.7 0c0-1.4-1.1-2.5-2.5-2.5-.7 0-1.3.3-1.8.7-1 1-1 2.6 0 3.5.5.5 1.1.7 1.8.7 1.4 0 2.5-1.1 2.5-2.4zm-17.7 0c0-1.4-1.1-2.5-2.5-2.5-.7 0-1.3.3-1.8.7-1 1-1 2.5 0 3.5.5.5 1.1.7 1.8.7 1.4 0 2.5-1.1 2.5-2.4h0zm-17.7 0c0-1.4-1.1-2.5-2.5-2.5-.7 0-1.3.3-1.8.7-1 1-1 2.5 0 3.5.5.5 1.1.7 1.8.7 1.4 0 2.5-1.1 2.5-2.4z" fill="#fff"/></g><defs><path id="C" d="M91.8 337.7c15.8 0 61.7-5.1 61.7-5.1 52.9-88.7 15.9-163.7 3.5-177.4s-12.3-30.7-12.3-30.7C171.1 27.3 91.8 29 91.8 29H93s-79.3-1.7-52.8 95.5c0 0 0 17.1-12.3 30.7s-49.3 88.7 3.5 177.4c0 0 45.8 5.1 61.6 5.1"/></defs><clipPath id="D"><use xlink:href="#C"/></clipPath><g clip-path="url(#D)"><circle cx="92.4" cy="92.1" r="92.1" fill="#fff"/></g><circle cx="92.4" cy="92.1" r="42.6" fill="#ffe9a3"/><path d="M73.7 96.3c-4.7 0-8.5-3.8-8.5-8.5 0-.9.8-1.7 1.7-1.7s1.7.8 1.7 1.7c-.1 2.8 2.1 5.2 4.9 5.3s5.2-2.1 5.3-4.9v-.5c-.1-.9.6-1.8 1.6-1.8.9-.1 1.8.6 1.8 1.6v.3c0 4.7-3.8 8.5-8.5 8.5zm37.5 0c-4.7 0-8.5-3.8-8.5-8.5-.1-.9.6-1.8 1.6-1.8.9-.1 1.8.6 1.8 1.6v.3c0 2.8 2.3 5.1 5.1 5.1s5.1-2.3 5.1-5.1c-.1-.9.6-1.8 1.6-1.8.9-.1 1.8.6 1.8 1.6v.3c0 4.5-3.8 8.3-8.5 8.3z" fill="#333"/><path d="M92.4 116.4c-4.7 0-8.5-3.8-8.5-8.5-.1-.9.6-1.8 1.6-1.8.9-.1 1.8.6 1.8 1.6v.3c0 2.8 2.3 5.1 5.1 5.1s5.1-2.3 5.1-5.1c-.1-.9.6-1.8 1.6-1.8.9-.1 1.8.6 1.8 1.6v.3c0 4.5-3.8 8.3-8.5 8.3zm-46 100.8s58.6-12.4 40.1-34.1l-.1-.1c-18.4-21.7-40.1 34.1-40.1 34.1m92.1.1s-58.6-12.4-40.1-34.1l.1-.1c18.4-21.7 40.2 34.1 40.2 34.1" fill="#ef609d"/><g fill="#333"><circle cx="92.4" cy="182.6" r="7.8"/><path d="M48.8 83.6s26-.8 44.1-19.9h0v-20s-44.1-5.1-44.1 39.9z"/><path d="M136 83.6s-26-.8-44.1-19.9h0v-20S136 38.6 136 83.6z"/></g></svg>