<svg xmlns="http://www.w3.org/2000/svg" xmlns:xlink="http://www.w3.org/1999/xlink" viewBox="0 0 252.1 339"><path d="M247 339.1c4.1-66.1-21.5-114.4-32.6-126.7-16.9-18.7-16.9-42-16.9-42 36.2-133.1-72.3-130.8-72.3-130.8h1.7S18.4 37.3 54.6 170.3c0 0 0 23.3-16.9 42-11.1 12.2-36.6 60.5-32.6 126.5" fill="#eea8ca"/><g fill="#ffd42f"><path d="M126 39.6h0zm-.8 0h0zm.9 0h0z"/><path d="M214.4 212.4c-16.9-18.7-16.9-42-16.9-42C231.8 44.2 136 39.7 126.1 39.6c-10 .1-105.8 4.6-71.5 130.7 0 0 0 23.3-16.9 42l-1.7 2c22.9 23.4 54.8 37.9 90.1 37.9 35.2 0 67.1-14.5 90-37.8l-1.7-2z"/></g><defs><path id="A" d="M125.2 462.2c21.7 0 84.4-7 84.4-7 72.3-121.4 21.7-224.1 4.8-242.8s-16.9-42-16.9-42c36.2-133.1-72.3-130.8-72.3-130.8h1.7S18.4 37.3 54.6 170.3c0 0 0 23.3-16.9 42s-67.5 121.4 4.8 242.8c0 0 62.7 7 84.4 7"/></defs><clipPath id="B"><use xlink:href="#A"/></clipPath><g clip-path="url(#B)"><defs><circle id="C" cx="126.1" cy="126.1" r="126.1"/></defs><clipPath id="D"><use xlink:href="#C"/></clipPath><g clip-path="url(#D)"><path d="M182.3 62.8c0-1.4-1.1-2.5-2.5-2.5s-2.5 1.1-2.5 2.5 1.1 2.5 2.5 2.5 2.5-1.1 2.5-2.5zm-17.7 0c0-1.4-1.1-2.5-2.5-2.5s-2.5 1.1-2.5 2.5 1.1 2.5 2.5 2.5 2.5-1.1 2.5-2.5zm-70.8 0c0-1.4-1.1-2.5-2.5-2.5s-2.5 1.1-2.5 2.5 1.1 2.5 2.5 2.5 2.5-1.1 2.5-2.5zm-17.7 0c0-1.4-1.1-2.5-2.5-2.5s-2.5 1.1-2.5 2.5 1.1 2.5 2.5 2.5 2.5-1.1 2.5-2.5zm79.6-14.3c0-1.4-1.1-2.5-2.5-2.5s-2.5 1.1-2.5 2.5 1.1 2.5 2.5 2.5 2.5-1.1 2.5-2.5zm-17.7 0c0-1.4-1.1-2.5-2.5-2.5s-2.5 1.1-2.5 2.5 1.1 2.5 2.5 2.5 2.5-1.1 2.5-2.5zm-17.7 0c0-1.4-1.1-2.5-2.5-2.5s-2.5 1.1-2.5 2.5 1.1 2.5 2.5 2.5 2.5-1.1 2.5-2.5zm-17.7 0c0-1.4-1.1-2.5-2.5-2.5s-2.5 1.1-2.5 2.5 1.1 2.5 2.5 2.5 2.5-1.1 2.5-2.5zM200 91.4c0-1.4-1.1-2.5-2.5-2.5S195 90 195 91.4s1.1 2.5 2.5 2.5 2.5-1.1 2.5-2.5h0zm-141.6 0c0-1.4-1.1-2.5-2.5-2.5s-2.5 1.1-2.5 2.5 1.1 2.5 2.5 2.5h.1c1.4-.1 2.4-1.2 2.4-2.5h0zm132.7-14.3c0-1.4-1.1-2.5-2.5-2.5s-2.5 1.1-2.5 2.5 1.1 2.5 2.5 2.5 2.5-1.2 2.5-2.5h0zm-123.8 0c0-1.4-1.1-2.5-2.5-2.5s-2.5 1.1-2.5 2.5 1.1 2.5 2.5 2.5 2.5-1.1 2.5-2.5h0zM200 120c0-1.4-1.1-2.5-2.5-2.5s-2.5 1.1-2.5 2.5 1.1 2.5 2.5 2.5 2.5-1.1 2.5-2.5zm-141.6 0c0-1.4-1.1-2.5-2.4-2.5-1.4 0-2.5 1.1-2.5 2.4 0 1.4 1.1 2.5 2.4 2.5h.1c1.3 0 2.4-1.1 2.4-2.4h0zM200 148.5c0-1.4-1.1-2.5-2.5-2.5s-2.5 1.1-2.5 2.5 1.1 2.5 2.5 2.5 2.5-1.1 2.5-2.5zm-141.6 0c0-1.4-1.1-2.5-2.5-2.5s-2.5 1.1-2.5 2.5 1.1 2.5 2.5 2.5h.1c1.3 0 2.4-1.1 2.4-2.5h0zm132.7-14.3c0-1.4-1.1-2.5-2.5-2.5s-2.5 1.1-2.5 2.5 1.1 2.5 2.5 2.5 2.5-1.1 2.5-2.5h0zm-123.9 0c0-1.4-1.1-2.5-2.5-2.5s-2.5 1.1-2.5 2.5 1.1 2.5 2.5 2.5h0c1.4 0 2.5-1.1 2.5-2.5h0zm115.1 42.9c0-1.4-1.1-2.5-2.5-2.5s-2.5 1.1-2.5 2.5 1.1 2.5 2.5 2.5 2.5-1.1 2.5-2.5h0zm-17.7 0c0-1.4-1.1-2.5-2.5-2.5s-2.5 1.1-2.5 2.5 1.1 2.5 2.5 2.5 2.5-1.1 2.5-2.5h0zm-70.8 0c0-1.4-1.1-2.5-2.5-2.5s-2.5 1.1-2.5 2.5 1.1 2.5 2.5 2.5h0c1.4 0 2.5-1.1 2.5-2.5h0zm-17.7 0c0-1.4-1.1-2.5-2.5-2.5s-2.5 1.1-2.5 2.5 1.1 2.5 2.5 2.5 2.5-1.1 2.5-2.5h0zm-17.7 0c0-1.4-1.1-2.5-2.5-2.5s-2.5 1.1-2.5 2.5 1.1 2.5 2.5 2.5h.1c1.4 0 2.4-1.1 2.4-2.5h0zm132.7-14.3c0-1.4-1.1-2.5-2.5-2.5s-2.5 1.1-2.5 2.5 1.1 2.5 2.5 2.5 2.5-1.1 2.5-2.5h0zm-123.9 0c0-1.4-1.1-2.5-2.5-2.5s-2.5 1.1-2.5 2.5 1.1 2.5 2.5 2.5h0c1.4 0 2.5-1.1 2.5-2.5h0zM200 205.7c0-1.4-1.1-2.5-2.5-2.5s-2.5 1.1-2.5 2.5 1.1 2.5 2.5 2.5 2.5-1.1 2.5-2.5zm-17.7 0c0-1.4-1.1-2.5-2.5-2.5s-2.5 1.1-2.5 2.5 1.1 2.5 2.5 2.5 2.5-1.1 2.5-2.5h0zm-17.7 0c0-1.4-1.1-2.5-2.5-2.5s-2.5 1.1-2.5 2.5 1.1 2.5 2.5 2.5 2.5-1.1 2.5-2.5h0zm-17.7 0c0-1.4-1.1-2.5-2.5-2.5s-2.5 1.1-2.5 2.5 1.1 2.5 2.5 2.5 2.5-1.1 2.5-2.5h0zm-17.7 0c0-1.4-1.1-2.5-2.5-2.5s-2.5 1.1-2.5 2.5 1.1 2.5 2.5 2.5 2.5-1.1 2.5-2.5h0zm-17.7 0c0-1.4-1.1-2.5-2.5-2.5s-2.5 1.1-2.5 2.5 1.1 2.5 2.5 2.5 2.5-1.1 2.5-2.5h0zm-17.7 0c0-1.4-1.1-2.5-2.5-2.5s-2.5 1.1-2.5 2.5 1.1 2.5 2.5 2.5h0c1.4 0 2.5-1.1 2.5-2.5h0zm-17.7 0c0-1.4-1.1-2.5-2.5-2.5s-2.5 1.1-2.5 2.5 1.1 2.5 2.5 2.5 2.5-1.1 2.5-2.5h0zm-17.7 0c0-1.4-1.1-2.5-2.5-2.5s-2.5 1.1-2.5 2.5 1.1 2.5 2.5 2.5 2.5-1.1 2.5-2.5h0zm132.7-14.3c0-1.4-1.1-2.5-2.5-2.5s-2.5 1.1-2.5 2.5 1.1 2.5 2.5 2.5 2.5-1.1 2.5-2.5h0zm-17.7 0c0-1.4-1.1-2.5-2.5-2.5s-2.5 1.1-2.5 2.5 1.1 2.5 2.5 2.5 2.5-1.1 2.5-2.5h0zm-17.7 0c0-1.4-1.1-2.5-2.5-2.5s-2.5 1.1-2.5 2.5 1.1 2.5 2.5 2.5 2.5-1.1 2.5-2.5h0zm-17.7 0c0-1.4-1.1-2.5-2.5-2.5s-2.5 1.1-2.5 2.5 1.1 2.5 2.5 2.5 2.5-1.1 2.5-2.5h0zm-17.7 0c0-1.4-1.1-2.5-2.5-2.5s-2.5 1.1-2.5 2.5 1.1 2.5 2.5 2.5h0c1.4 0 2.5-1.1 2.5-2.5h0zm-17.7 0c0-1.4-1.1-2.5-2.5-2.5s-2.5 1.1-2.5 2.5 1.1 2.5 2.5 2.5 2.5-1.1 2.5-2.5h0zm-17.7 0c0-1.4-1.1-2.5-2.5-2.5s-2.5 1.1-2.5 2.5 1.1 2.5 2.5 2.5 2.5-1.1 2.5-2.5h0zm-17.7 0c0-1.4-1.1-2.5-2.5-2.5s-2.5 1.1-2.5 2.5 1.1 2.5 2.5 2.5h0c1.4 0 2.5-1.1 2.5-2.5h0zm115 42.9c0-1.4-1.1-2.5-2.5-2.5s-2.5 1.1-2.5 2.5 1.1 2.5 2.5 2.5c1.4-.1 2.5-1.2 2.5-2.5zm-17.7 0c0-1.4-1.1-2.5-2.5-2.5s-2.5 1.1-2.5 2.5 1.1 2.5 2.5 2.5 2.5-1.2 2.5-2.5zm-17.7 0c0-1.4-1.1-2.5-2.5-2.5s-2.5 1.1-2.5 2.5 1.1 2.5 2.5 2.5c1.4-.1 2.5-1.2 2.5-2.5zm-17.7 0c0-1.4-1.1-2.5-2.5-2.5s-2.5 1.1-2.5 2.5 1.1 2.5 2.5 2.5c1.4-.1 2.5-1.2 2.5-2.5zm-17.7 0c0-1.4-1.1-2.5-2.5-2.5s-2.5 1.1-2.5 2.5 1.1 2.5 2.5 2.5 2.5-1.2 2.5-2.5zm-17.7 0c0-1.4-1.1-2.5-2.5-2.5s-2.5 1.1-2.5 2.5 1.1 2.5 2.5 2.5h0c1.4-.1 2.5-1.2 2.5-2.5zm-17.7 0c0-1.4-1.1-2.5-2.5-2.5s-2.5 1.1-2.5 2.5 1.1 2.5 2.5 2.5c1.4-.1 2.5-1.2 2.5-2.5zM208.8 220c0-1.4-1.1-2.5-2.5-2.5s-2.5 1.1-2.5 2.5 1.1 2.5 2.5 2.5 2.5-1.1 2.5-2.5zm-17.7 0c0-1.4-1.1-2.5-2.5-2.5s-2.5 1.1-2.5 2.5 1.1 2.5 2.5 2.5 2.5-1.1 2.5-2.5zm-17.7 0c0-1.4-1.1-2.5-2.5-2.5s-2.5 1.1-2.5 2.5 1.1 2.5 2.5 2.5 2.5-1.1 2.5-2.5zm-17.7 0c0-1.4-1.1-2.5-2.5-2.5s-2.5 1.1-2.5 2.5 1.1 2.5 2.5 2.5 2.5-1.1 2.5-2.5zm-17.7 0c0-1.4-1.1-2.5-2.5-2.5s-2.5 1.1-2.5 2.5 1.1 2.5 2.5 2.5 2.5-1.1 2.5-2.5zm-17.7 0c0-1.4-1.1-2.5-2.5-2.5s-2.5 1.1-2.5 2.5 1.1 2.5 2.5 2.5h0c1.4 0 2.5-1.1 2.5-2.5zm-17.7 0c0-1.4-1.1-2.5-2.5-2.5s-2.5 1.1-2.5 2.5 1.1 2.5 2.5 2.5 2.5-1.1 2.5-2.5zM85 220c0-1.4-1.1-2.5-2.5-2.5S80 218.6 80 220s1.1 2.5 2.5 2.5 2.5-1.1 2.5-2.5zm-17.7 0c0-1.4-1.1-2.5-2.5-2.5s-2.5 1.1-2.5 2.5 1.1 2.5 2.5 2.5h0c1.4 0 2.5-1.1 2.5-2.5h0zm-17.7 0c0-1.4-1.1-2.5-2.5-2.5s-2.5 1.1-2.5 2.5 1.1 2.5 2.5 2.5 2.5-1.1 2.5-2.5h0z" fill="#fff"/></g></g><circle cx="126.1" cy="126.1" r="58.4" fill="#ffe9a3"/><path d="M100.4 131.8c-6.4 0-11.7-5.2-11.7-11.7-.1-1.3.9-2.4 2.2-2.5s2.4.9 2.5 2.2v.3c0 3.9 3.1 7 7 7s7-3.1 7-7c-.1-1.3.9-2.4 2.2-2.5s2.4.9 2.5 2.2v.3c-.1 6.5-5.3 11.7-11.7 11.7zm51.3 0c-6.4 0-11.7-5.2-11.7-11.7-.1-1.3.9-2.4 2.2-2.5s2.4.9 2.5 2.2v.3c0 3.9 3.1 7 7 7s7-3.1 7-7c-.1-1.3.9-2.4 2.2-2.5s2.4.9 2.5 2.2v.3c0 6.4-5.2 11.7-11.7 11.7h0z" fill="#333"/><path d="M126.1 159.3c-6.4 0-11.7-5.2-11.7-11.7a2.26 2.26 0 1 1 4.6 0c0 3.9 3.1 7 7 7s7-3.1 7-7c.1-1.3 1.2-2.3 2.5-2.2 1.2.1 2.1 1 2.2 2.2 0 6.5-5.2 11.7-11.6 11.7z" fill="#ef609d"/><path d="M60.1 295.8S144 278 117.6 247l-.2-.2c-26.3-31.1-57.4 48.9-57.3 49m131.9 0S108.1 278 134.5 247l.1-.2c26.4-31.1 57.5 48.9 57.5 48.9" fill="#ffe9a3"/><circle cx="126.1" cy="246.3" r="11.2" fill="#fff"/><g fill="#ef609d"><path d="M63.6 116.3s37.3-1.2 63.2-28.6h0V59.2s-63.2-7.3-63.2 57.1h0z"/><path d="M188.5 116.3s-37.3-1.2-63.2-28.6h0V59.2s63.2-7.3 63.2 57.1h0z"/></g></svg>