<svg xmlns="http://www.w3.org/2000/svg" xmlns:xlink="http://www.w3.org/1999/xlink" viewBox="0 0 151.69 278.11"><defs><clipPath id="A" transform="translate(2.81 23.88)"><path d="M72.54 254.23c13.06 0 50.78-4.2 50.78-4.2 43.52-73 13.06-134.84 2.9-146.08a41.37 41.37 0 0 1-10.15-25.28C137.83-1.4 72.54 0 72.54 0h1S8.25-1.4 30 78.66a41.35 41.35 0 0 1-10.16 25.28C9.7 115.18-20.77 177 22.76 250c0 0 37.72 4.2 50.77 4.2" fill="none"/></clipPath><path id="B" d="M60.4 79.3a7 7 0 0 1-7-7 1.41 1.41 0 0 1 2.81 0 4.22 4.22 0 0 0 6.384 3.825 4.22 4.22 0 0 0 2.046-3.825 1.41 1.41 0 0 1 2.81 0 7 7 0 0 1-7.05 7z"/></defs><path d="M75.35 278.1c13.06 0 50.78-4.2 50.78-4.2 43.52-73 13.06-134.84 2.9-146.08a41.37 41.37 0 0 1-10.15-25.28c21.76-80.06-43.53-78.66-43.53-78.66h1s-65.3-1.4-43.54 78.66a41.35 41.35 0 0 1-10.16 25.28c-10.14 11.24-40.6 73.06 2.92 146.06 0 0 37.72 4.2 50.77 4.2" fill="#ffd42f"/><g clip-path="url(#A)"><circle cx="75.85" cy="75.85" r="75.85" fill="#333"/></g><circle cx="75.85" cy="75.85" r="35.11" fill="#ffe9a3"/><g fill="#333"><use xlink:href="#B"/><path d="M91.3 79.3a7 7 0 0 1-7-7 1.4 1.4 0 1 1 2.8 0 4.22 4.22 0 0 0 6.384 3.825 4.22 4.22 0 0 0 2.046-3.825 1.41 1.41 0 0 1 2.81 0 7 7 0 0 1-7.04 7z"/></g><use xlink:href="#B" x="15.4" y="16.58" fill="#ef609d"/><path d="M36.38 179.95S86.62 169.3 70.8 150.7l-.1-.1c-15.82-18.62-34.43 29.3-34.43 29.3m79.05.05S65.07 169.3 80.9 150.7l.1-.1c15.83-18.62 34.43 29.3 34.43 29.3" fill="#eea8ca"/><circle cx="75.85" cy="150.27" r="6.72" fill="#ffe9a3"/><g fill="#fff"><path d="M38.44 69.42s22.3-.7 37.86-17.1h0v-17.1s-37.86-4.35-37.86 34.2z"/><path d="M113.26 69.42s-22.3-.7-37.86-17.1h0v-17.1s37.86-4.35 37.86 34.2z"/></g></svg>